<svg width="16" height="15" viewBox="0 0 16 15" fill="none" xmlns="http://www.w3.org/2000/svg">
<rect x="0.99699" y="0.228886" width="14.0699" height="14.0699" rx="4.05862" fill="#EBD96B"/>
<path d="M8.01762 5.7299C7.17736 5.7299 6.4996 6.40766 6.4996 7.24792C6.4996 8.08818 7.17736 8.76594 8.01762 8.76594C8.85788 8.76594 9.53564 8.08818 9.53564 7.24792C9.53564 6.40766 8.85788 5.7299 8.01762 5.7299ZM8.01762 8.23483C7.47462 8.23483 7.03071 7.79224 7.03071 7.24792C7.03071 6.7036 7.4733 6.26101 8.01762 6.26101C8.56194 6.26101 9.00453 6.7036 9.00453 7.24792C9.00453 7.79224 8.56062 8.23483 8.01762 8.23483ZM9.95181 5.6678C9.95181 5.86466 9.79327 6.02188 9.59774 6.02188C9.40088 6.02188 9.24367 5.86334 9.24367 5.6678C9.24367 5.47227 9.40221 5.31373 9.59774 5.31373C9.79327 5.31373 9.95181 5.47227 9.95181 5.6678ZM10.9572 6.02716C10.9348 5.55286 10.8264 5.13273 10.479 4.78658C10.1328 4.44044 9.71268 4.3321 9.23838 4.30832C8.74955 4.28058 7.28437 4.28058 6.79554 4.30832C6.32257 4.33078 5.90243 4.43912 5.55497 4.78526C5.2075 5.13141 5.10049 5.55154 5.07671 6.02584C5.04896 6.51467 5.04896 7.97984 5.07671 8.46868C5.09916 8.94298 5.2075 9.36311 5.55497 9.70925C5.90243 10.0554 6.32124 10.1637 6.79554 10.1875C7.28437 10.2153 8.74955 10.2153 9.23838 10.1875C9.71268 10.1651 10.1328 10.0567 10.479 9.70925C10.8251 9.36311 10.9334 8.94298 10.9572 8.46868C10.985 7.97984 10.985 6.51599 10.9572 6.02716ZM10.3257 8.99318C10.2227 9.25213 10.0232 9.45162 9.76288 9.556C9.37314 9.71057 8.44832 9.6749 8.01762 9.6749C7.58692 9.6749 6.66078 9.70925 6.27236 9.556C6.01341 9.45295 5.81392 9.25345 5.70954 8.99318C5.55497 8.60344 5.59064 7.67862 5.59064 7.24792C5.59064 6.81722 5.55629 5.89108 5.70954 5.50266C5.8126 5.24371 6.01209 5.04421 6.27236 4.93984C6.66211 4.78526 7.58692 4.82093 8.01762 4.82093C8.44832 4.82093 9.37446 4.78658 9.76288 4.93984C10.0218 5.04289 10.2213 5.24239 10.3257 5.50266C10.4803 5.8924 10.4446 6.81722 10.4446 7.24792C10.4446 7.67862 10.4803 8.60476 10.3257 8.99318Z" fill="black"/>
</svg>
