<svg width="15" height="15" viewBox="0 0 15 15" fill="none" xmlns="http://www.w3.org/2000/svg">
<rect x="0.712757" y="0.228882" width="14.0699" height="14.0699" rx="4.05862" fill="#EBD96B"/>
<path d="M6.36128 6.42153V9.85234H5.44492V6.42153H6.36128ZM5.38785 5.52736C5.38785 5.39419 5.43435 5.28427 5.52736 5.1976C5.62037 5.11093 5.74509 5.0676 5.90152 5.0676C6.05583 5.0676 6.17949 5.11093 6.2725 5.1976C6.36762 5.28427 6.41519 5.39419 6.41519 5.52736C6.41519 5.66054 6.36762 5.77046 6.2725 5.85713C6.17949 5.9438 6.05583 5.98713 5.90152 5.98713C5.74509 5.98713 5.62037 5.9438 5.52736 5.85713C5.43435 5.77046 5.38785 5.66054 5.38785 5.52736ZM8.13997 7.15399V9.85234H7.22678V6.42153H8.0829L8.13997 7.15399ZM8.0068 8.01644H7.75948C7.75948 7.76278 7.79224 7.53448 7.85777 7.33155C7.9233 7.12651 8.01526 6.95211 8.13363 6.80837C8.25201 6.66251 8.39258 6.55153 8.55535 6.47543C8.72023 6.39722 8.90414 6.35811 9.10707 6.35811C9.26772 6.35811 9.41464 6.38137 9.54781 6.42787C9.68098 6.47438 9.79513 6.54836 9.89026 6.64983C9.98749 6.75129 10.0615 6.88552 10.1122 7.05252C10.1651 7.21952 10.1915 7.4235 10.1915 7.66448V9.85234H9.27195V7.66131C9.27195 7.50912 9.25081 7.39074 9.20853 7.30618C9.16626 7.22163 9.1039 7.16244 9.02146 7.12862C8.94113 7.09268 8.84178 7.07472 8.7234 7.07472C8.6008 7.07472 8.49405 7.09903 8.40315 7.14764C8.31437 7.19626 8.24038 7.26391 8.18119 7.35058C8.12412 7.43513 8.08079 7.53448 8.05119 7.64863C8.0216 7.76278 8.0068 7.88538 8.0068 8.01644Z" fill="black"/>
</svg>
