<svg width="15" height="15" viewBox="0 0 15 15" fill="none" xmlns="http://www.w3.org/2000/svg">
<rect x="0.854809" y="0.228882" width="14.0699" height="14.0699" rx="4.05862" fill="#EBD96B"/>
<path d="M11.2532 5.92726C11.2575 5.98735 11.2575 6.04745 11.2575 6.10753C11.2575 7.94026 9.86256 10.052 7.31304 10.052C6.52758 10.052 5.79792 9.82449 5.18415 9.42963C5.29575 9.4425 5.40304 9.4468 5.51893 9.4468C6.16703 9.4468 6.76364 9.22791 7.24007 8.85449C6.63059 8.84161 6.11982 8.44245 5.94384 7.89305C6.02969 7.90592 6.11553 7.91451 6.20567 7.91451C6.33014 7.91451 6.45462 7.89733 6.5705 7.8673C5.93527 7.73853 5.45883 7.18056 5.45883 6.5067V6.48954C5.64338 6.59255 5.85801 6.65693 6.08547 6.6655C5.71206 6.41655 5.46742 5.99164 5.46742 5.51092C5.46742 5.2534 5.53608 5.01733 5.65627 4.81131C6.33871 5.65256 7.36453 6.20194 8.51481 6.26204C8.49335 6.15903 8.48047 6.05174 8.48047 5.94444C8.48047 5.18043 9.09854 4.55808 9.86682 4.55808C10.266 4.55808 10.6265 4.72547 10.8798 4.99588C11.1931 4.93579 11.4935 4.8199 11.7596 4.66109C11.6566 4.98301 11.4377 5.25341 11.1502 5.42509C11.4292 5.39505 11.6996 5.31778 11.9485 5.21049C11.7597 5.48517 11.5236 5.72981 11.2532 5.92726Z" fill="black"/>
</svg>
